<?xml version="1.0" encoding="UTF-8"?>
<!DOCTYPE svg PUBLIC "-//W3C//DTD SVG 1.1//EN" "http://www.w3.org/Graphics/SVG/1.1/DTD/svg11.dtd">
<svg version="1.2" width="200mm" height="200mm" viewBox="0 0 20000 20000" preserveAspectRatio="xMidYMid" fill-rule="evenodd" stroke-width="28.222" stroke-linejoin="round" xmlns="http://www.w3.org/2000/svg" xmlns:ooo="http://xml.openoffice.org/svg/export" xmlns:xlink="http://www.w3.org/1999/xlink" xmlns:presentation="http://sun.com/xmlns/staroffice/presentation" xmlns:smil="http://www.w3.org/2001/SMIL20/" xmlns:anim="urn:oasis:names:tc:opendocument:xmlns:animation:1.0" xml:space="preserve">
 <defs class="ClipPathGroup">
  <clipPath id="presentation_clip_path" clipPathUnits="userSpaceOnUse">
   <rect x="0" y="0" width="20000" height="20000"/>
  </clipPath>
  <clipPath id="presentation_clip_path_shrink" clipPathUnits="userSpaceOnUse">
   <rect x="20" y="20" width="19960" height="19960"/>
  </clipPath>
 </defs>
 <defs class="TextShapeIndex">
  <g ooo:slide="id1" ooo:id-list="id3 id4 id5"/>
 </defs>
 <defs class="EmbeddedBulletChars">
  <g id="bullet-char-template(57356)" transform="scale(0.00048828125,-0.00048828125)">
   <path d="M 580,1141 L 1163,571 580,0 -4,571 580,1141 Z"/>
  </g>
  <g id="bullet-char-template(57354)" transform="scale(0.00048828125,-0.00048828125)">
   <path d="M 8,1128 L 1137,1128 1137,0 8,0 8,1128 Z"/>
  </g>
  <g id="bullet-char-template(10146)" transform="scale(0.00048828125,-0.00048828125)">
   <path d="M 174,0 L 602,739 174,1481 1456,739 174,0 Z M 1358,739 L 309,1346 659,739 1358,739 Z"/>
  </g>
  <g id="bullet-char-template(10132)" transform="scale(0.00048828125,-0.00048828125)">
   <path d="M 2015,739 L 1276,0 717,0 1260,543 174,543 174,936 1260,936 717,1481 1274,1481 2015,739 Z"/>
  </g>
  <g id="bullet-char-template(10007)" transform="scale(0.00048828125,-0.00048828125)">
   <path d="M 0,-2 C -7,14 -16,27 -25,37 L 356,567 C 262,823 215,952 215,954 215,979 228,992 255,992 264,992 276,990 289,987 310,991 331,999 354,1012 L 381,999 492,748 772,1049 836,1024 860,1049 C 881,1039 901,1025 922,1006 886,937 835,863 770,784 769,783 710,716 594,584 L 774,223 C 774,196 753,168 711,139 L 727,119 C 717,90 699,76 672,76 641,76 570,178 457,381 L 164,-76 C 142,-110 111,-127 72,-127 30,-127 9,-110 8,-76 1,-67 -2,-52 -2,-32 -2,-23 -1,-13 0,-2 Z"/>
  </g>
  <g id="bullet-char-template(10004)" transform="scale(0.00048828125,-0.00048828125)">
   <path d="M 285,-33 C 182,-33 111,30 74,156 52,228 41,333 41,471 41,549 55,616 82,672 116,743 169,778 240,778 293,778 328,747 346,684 L 369,508 C 377,444 397,411 428,410 L 1163,1116 C 1174,1127 1196,1133 1229,1133 1271,1133 1292,1118 1292,1087 L 1292,965 C 1292,929 1282,901 1262,881 L 442,47 C 390,-6 338,-33 285,-33 Z"/>
  </g>
  <g id="bullet-char-template(9679)" transform="scale(0.00048828125,-0.00048828125)">
   <path d="M 813,0 C 632,0 489,54 383,161 276,268 223,411 223,592 223,773 276,916 383,1023 489,1130 632,1184 813,1184 992,1184 1136,1130 1245,1023 1353,916 1407,772 1407,592 1407,412 1353,268 1245,161 1136,54 992,0 813,0 Z"/>
  </g>
  <g id="bullet-char-template(8226)" transform="scale(0.00048828125,-0.00048828125)">
   <path d="M 346,457 C 273,457 209,483 155,535 101,586 74,649 74,723 74,796 101,859 155,911 209,963 273,989 346,989 419,989 480,963 531,910 582,859 608,796 608,723 608,648 583,586 532,535 482,483 420,457 346,457 Z"/>
  </g>
  <g id="bullet-char-template(8211)" transform="scale(0.00048828125,-0.00048828125)">
   <path d="M -4,459 L 1135,459 1135,606 -4,606 -4,459 Z"/>
  </g>
  <g id="bullet-char-template(61548)" transform="scale(0.00048828125,-0.00048828125)">
   <path d="M 173,740 C 173,903 231,1043 346,1159 462,1274 601,1332 765,1332 928,1332 1067,1274 1183,1159 1299,1043 1357,903 1357,740 1357,577 1299,437 1183,322 1067,206 928,148 765,148 601,148 462,206 346,322 231,437 173,577 173,740 Z"/>
  </g>
 </defs>
 <defs class="TextEmbeddedBitmaps"/>
 <g>
  <g id="id2" class="Master_Slide">
   <g id="bg-id2" class="Background"/>
   <g id="bo-id2" class="BackgroundObjects"/>
  </g>
 </g>
 <g class="SlideGroup">
  <g>
   <g id="container-id1">
    <g id="id1" class="Slide" clip-path="url(#presentation_clip_path)">
     <g class="Page">
      <g class="Group">
       <g class="com.sun.star.drawing.ClosedBezierShape">
        <g id="id3">
         <rect class="BoundingBox" stroke="none" fill="none" x="185" y="599" width="13118" height="13119"/>
         <defs>
          <mask id="mask1">
           <g>
            <defs>
             <linearGradient id="gradient1" x1="6843" y1="800" x2="6843" y2="13716" gradientUnits="userSpaceOnUse">
              <stop offset="0.5" style="stop-color:rgb(102,102,102)"/>
              <stop offset="0.5" style="stop-color:rgb(102,102,102)"/>
              <stop offset="1" style="stop-color:rgb(102,102,102)"/>
              <stop offset="1" style="stop-color:rgb(102,102,102)"/>
             </linearGradient>
            </defs>
            <path style="fill:url(#gradient1)" d="M 385,800 L 13301,800 13301,13716 385,13716 385,800 Z"/>
           </g>
          </mask>
         </defs>
         <g style="mask:url(#mask1)">
          <path fill="rgb(128,128,128)" stroke="none" d="M 10525,3254 C 6607,3254 3614,3953 3614,4867 3614,5782 6607,6482 10525,6482 11499,6482 12416,6438 13243,6359 13282,6652 13301,6952 13301,7258 13301,7698 13261,8125 13184,8536 12372,8460 11475,8419 10525,8419 6607,8419 3614,9118 3614,10032 3614,10947 6607,11647 10525,11647 10915,11647 11297,11640 11667,11626 10500,12922 8794,13716 6843,13716 3182,13716 385,10920 385,7258 385,3596 3182,800 6843,800 8987,800 10835,1759 11997,3288 11525,3266 11033,3254 10525,3254 Z"/>
         </g>
         <path fill="rgb(39,174,96)" stroke="none" d="M 10325,3054 C 6407,3054 3414,3753 3414,4667 3414,5582 6407,6282 10325,6282 11299,6282 12216,6238 13043,6159 13082,6452 13101,6752 13101,7058 13101,7498 13061,7925 12984,8336 12172,8260 11275,8219 10325,8219 6407,8219 3414,8918 3414,9832 3414,10747 6407,11447 10325,11447 10715,11447 11097,11440 11467,11426 10300,12722 8594,13516 6643,13516 2982,13516 185,10720 185,7058 185,3396 2982,600 6643,600 8787,600 10635,1559 11797,3088 11325,3066 10833,3054 10325,3054 Z"/>
        </g>
       </g>
       <g class="com.sun.star.drawing.ClosedBezierShape">
        <g id="id4">
         <rect class="BoundingBox" stroke="none" fill="none" x="7676" y="4862" width="12214" height="14539"/>
         <defs>
          <mask id="mask2">
           <g>
            <defs>
             <linearGradient id="gradient2" x1="13883" y1="5062" x2="13883" y2="19399" gradientUnits="userSpaceOnUse">
              <stop offset="0.5" style="stop-color:rgb(102,102,102)"/>
              <stop offset="0.5" style="stop-color:rgb(102,102,102)"/>
              <stop offset="1" style="stop-color:rgb(102,102,102)"/>
              <stop offset="1" style="stop-color:rgb(102,102,102)"/>
             </linearGradient>
            </defs>
            <path style="fill:url(#gradient2)" d="M 7877,5062 L 19889,5062 19889,19399 7877,19399 7877,5062 Z"/>
           </g>
          </mask>
         </defs>
         <g style="mask:url(#mask2)">
          <path fill="rgb(128,128,128)" stroke="none" d="M 18353,7246 C 15614,7246 13523,8027 13523,9050 13523,10073 15614,10854 18353,10854 18866,10854 19357,10827 19815,10775 18852,12079 16830,12943 14401,12943 14273,12943 14146,12940 14021,12936 13949,16624 12644,19399 10951,19399 9208,19399 7877,16460 7877,12610 7877,11170 8063,9856 8388,8777 8441,8104 8734,7483 9215,6951 9652,6310 10173,5913 10745,5836 11747,5347 13007,5062 14401,5062 16894,5062 18957,5972 19889,7333 19410,7277 18894,7246 18353,7246 Z"/>
         </g>
         <path fill="rgb(236,240,241)" stroke="none" d="M 18153,7046 C 15414,7046 13323,7827 13323,8850 13323,9873 15414,10654 18153,10654 18666,10654 19157,10627 19615,10575 18652,11879 16630,12743 14201,12743 14073,12743 13946,12740 13821,12736 13749,16424 12444,19199 10751,19199 9008,19199 7677,16260 7677,12410 7677,10970 7863,9656 8188,8577 8241,7904 8534,7283 9015,6751 9452,6110 9973,5713 10545,5636 11547,5147 12807,4862 14201,4862 16694,4862 18757,5772 19689,7133 19210,7077 18694,7046 18153,7046 Z"/>
        </g>
       </g>
       <g class="com.sun.star.drawing.CustomShape">
        <g id="id5">
         <rect class="BoundingBox" stroke="none" fill="none" x="9905" y="728" width="3147" height="4748"/>
         <defs>
          <mask id="mask3">
           <g>
            <defs>
             <linearGradient id="gradient3" x1="11578" y1="929" x2="11578" y2="5475" gradientUnits="userSpaceOnUse">
              <stop offset="0.5" style="stop-color:rgb(102,102,102)"/>
              <stop offset="0.5" style="stop-color:rgb(102,102,102)"/>
              <stop offset="1" style="stop-color:rgb(102,102,102)"/>
              <stop offset="1" style="stop-color:rgb(102,102,102)"/>
             </linearGradient>
            </defs>
            <path style="fill:url(#gradient3)" d="M 10105,929 L 13051,929 13051,5475 10105,5475 10105,929 Z"/>
           </g>
          </mask>
         </defs>
         <g style="mask:url(#mask3)">
          <path fill="rgb(128,128,128)" stroke="none" d="M 12373,1505 C 13069,1832 13257,2816 12806,3777 12356,4739 11479,5224 10783,4897 10087,4570 9899,3586 10350,2625 10800,1663 11677,1178 12373,1505 Z M 11144,929 L 11144,929 Z M 12012,5475 L 12012,5475 Z"/>
         </g>
         <path fill="rgb(243,156,18)" stroke="none" d="M 12173,1305 C 12869,1632 13057,2616 12606,3577 12156,4539 11279,5024 10583,4697 9887,4370 9699,3386 10150,2425 10600,1463 11477,978 12173,1305 Z M 10944,729 L 10944,729 Z M 11812,5275 L 11812,5275 Z"/>
        </g>
       </g>
      </g>
     </g>
    </g>
   </g>
  </g>
 </g>
</svg>